<?xml version="1.0" encoding="utf-8"?>
<!-- Generator: Adobe Illustrator 21.1.0, SVG Export Plug-In . SVG Version: 6.00 Build 0)  -->
<svg version="1.1" id="Layer_1" xmlns="http://www.w3.org/2000/svg" xmlns:xlink="http://www.w3.org/1999/xlink" x="0px" y="0px"
	 viewBox="0 0 300 177.6" style="enable-background:new 0 0 300 177.6;" xml:space="preserve">
<style type="text/css">
	.st0{fill:#FFFFFF;}
</style>
<g>
	<polygon class="st0" points="28.8,103.5 14.4,80.4 0,80.4 0,138 13.6,138 13.6,103.3 28.1,125.3 29.2,125.3 43.9,103 43.9,138 
		57.6,138 57.6,80.4 43.2,80.4 	"/>
	<path class="st0" d="M95.4,122.6c-2.8,2.6-5.4,4.4-9.4,4.4c-6,0-10.2-4.6-10.2-11.1v-0.2c0-6.2,4.3-11,9.7-11
		c4.2,0,6.7,1.8,9.3,4.5l0.5,0.6l8.4-9.1l-0.4-0.5c-4.6-5.2-10.1-7.5-17.7-7.5c-13.3,0-23.3,9.9-23.3,23.1v0.2
		c0,12.9,10.1,22.9,23.1,22.9c9.4,0,14.3-3.9,18.1-8.1l0.5-0.5l-8.1-8.2L95.4,122.6z"/>
	<path class="st0" d="M129.7,80.4h-22.6V138h22.6c17.7,0,30.6-12.1,30.6-28.8V109C160.3,92.4,147.4,80.4,129.7,80.4z M120.9,93h8.8
		c9.7,0,16.2,6.5,16.2,16.2v0.2c0,9.6-6.5,16-16.2,16h-8.8V93z"/>
	<rect x="165.1" y="93.5" class="st0" width="13.6" height="44.4"/>
	<polygon class="st0" points="203.1,120.8 194,93.5 179.5,93.5 197,138.3 209.1,138.3 226.6,93.5 212.3,93.5 	"/>
	<rect x="227.5" y="93.5" class="st0" width="13.6" height="44.4"/>
	<path class="st0" d="M300.1,105.4V93.5H290v-11h-13.7v11h-3.7h-1.5h-8.6v-11h-13.7v11h-5.1v11.9h5.1v19.6c0,9.3,4.2,13.6,13.2,13.6
		c3.8,0,7-0.8,10-2.6l0.4-0.2v-11.4l-1.1,0.6c-1.7,1-3.7,1.4-5.7,1.4c-2.3,0-3.2-1-3.2-3.4v-17.6h8.6h1.5h3.7v19.6
		c0,9.3,4.2,13.6,13.2,13.6c3.8,0,7-0.8,10-2.6l0.4-0.2v-11.4l-1.1,0.6c-1.7,1-3.7,1.4-5.7,1.4c-2.3,0-3.2-1-3.2-3.4v-17.6H300.1z"
		/>
	<rect x="165.2" y="80.3" class="st0" width="13.4" height="9.7"/>
	<rect x="227.6" y="80.3" class="st0" width="13.4" height="9.7"/>
</g>
<g>
	<g>
		<path class="st0" d="M33.8,152.4h6.9v19h12.1v6.1H33.8V152.4z"/>
		<path class="st0" d="M70.8,152.2h6.7l10.7,25.2h-7.4l-1.8-4.5h-9.7l-1.8,4.5h-7.3L70.8,152.2z M76.9,167.5l-2.8-7.1l-2.8,7.1H76.9
			z"/>
		<path class="st0" d="M92.1,152.4h7.3l4.4,14.5l4.8-14.6h6l4.8,14.6l4.4-14.5h7.2l-8.4,25.2h-6.1l-5-14.4l-5,14.4h-6.1L92.1,152.4z
			"/>
		<path class="st0" d="M155.2,152.4h20v6.1h-13.1v4.3H174v5.8h-11.8v8.9h-6.9V152.4z"/>
		<path class="st0" d="M184.5,152.4h6.9v25.1h-6.9V152.4z"/>
		<path class="st0" d="M202,152.4h11.8c3.8,0,6.5,1,8.2,2.7c1.5,1.5,2.2,3.4,2.2,5.8v0.1c0,3.9-2,6.4-5.2,7.7l6,8.7h-8l-5-7.6h-3.1
			v7.6H202V152.4z M213.6,164.4c2.3,0,3.7-1.1,3.7-3v-0.1c0-2-1.5-3-3.8-3h-4.6v6H213.6z"/>
		<path class="st0" d="M233.7,152.4h7.3l6,9.7l6-9.7h7.3v25.1h-6.9V163l-6.4,9.8h-0.1l-6.4-9.8v14.4h-6.8V152.4z"/>
	</g>
</g>
<g>
	<polygon class="st0" points="216.1,38.1 226.5,47.8 235,50.3 243.7,64.2 262.8,64.5 238.1,39.4 225.5,33.7 225.5,33.7 203.4,9.2 
		191.8,5.8 184.7,0 166.1,15.3 158.2,18.3 144.8,31.6 137.6,32.1 107.1,64.5 108.2,64.5 140.6,39.8 147.2,41.1 167.8,26.9 
		139.3,64.5 139.9,64.5 168,44.1 161.9,63.2 203.6,74.4 227.4,64.8 	"/>
	<polygon class="st0" points="143.4,25.4 126.6,9 112,3 97.5,13.2 82.9,18.2 37.3,52.8 37.3,54.3 88.8,26 67.3,62 87.9,46.7 
		82.1,56.8 125.5,35.5 130.7,29 124.1,13.8 136.1,26.4 	"/>
</g>
</svg>
